<svg xmlns="http://www.w3.org/2000/svg" xmlns:xlink="http://www.w3.org/1999/xlink" width="84" height="84" viewBox="0 0 84 84">
  <defs>
    <filter id="Ellipse_17" x="0" y="0" width="84" height="84" filterUnits="userSpaceOnUse">
      <feOffset dy="3" input="SourceAlpha"/>
      <feGaussianBlur stdDeviation="3" result="blur"/>
      <feFlood flood-opacity="0.161"/>
      <feComposite operator="in" in2="blur"/>
      <feComposite in="SourceGraphic"/>
    </filter>
  </defs>
  <g id="Group_842" data-name="Group 842" transform="translate(-264 -506)">
    <g transform="matrix(1, 0, 0, 1, 264, 506)" filter="url(#Ellipse_17)">
      <circle id="Ellipse_17-2" data-name="Ellipse 17" cx="33" cy="33" r="33" transform="translate(9 6)" fill="#fff"/>
    </g>
    <g id="customer-service" transform="translate(286.842 524.416)">
      <path id="Path_275" data-name="Path 275" d="M38.117,40.035,31.808,42.7a1.678,1.678,0,0,0,.022-.242,2.222,2.222,0,0,0-2.221-2.221H25.067a1.254,1.254,0,0,1-.534-.118l-3.851-1.743a4.758,4.758,0,0,0-1.929-.416H15.616v1.125h3.137a3.587,3.587,0,0,1,1.467.315l3.851,1.743a2.443,2.443,0,0,0,1,.214h4.543a1.1,1.1,0,0,1,0,2.193H23.729v1.124H29.61a2.186,2.186,0,0,0,1.063-.281V44.4l7.877-3.334a2.544,2.544,0,0,1,3.182,1.046l-13.9,7.377a4.529,4.529,0,0,1-3.475.309l-6.8-2.187-1.94-.028V48.7h1.681l6.719,2.159a5.535,5.535,0,0,0,1.709.264,5.594,5.594,0,0,0,2.631-.652l14.815-7.849L43,42.166a3.665,3.665,0,0,0-4.886-2.131Z" transform="translate(-6.229 -14.59)"/>
      <path id="Path_276" data-name="Path 276" d="M8.166,48.471V36.534A1.128,1.128,0,0,0,7.042,35.41H1.38v1.124H7.042V48.477H1.38V49.6H7.042A1.136,1.136,0,0,0,8.166,48.471Z" transform="translate(0 -13.474)"/>
      <path id="Path_277" data-name="Path 277" d="M7.59,54.913A.79.79,0,1,1,6.8,54.12.789.789,0,0,1,7.59,54.913Z" transform="translate(-2.027 -21.664)"/>
      <path id="Path_278" data-name="Path 278" d="M23.166,18.012l.607.45,4.183-2.316,3.784,2.277.326.191.607-.439-.911-4.689,3.345-2.9.27-.259-.236-.7-4.734-.585-1.72-4.071-.157-.337-.36-.006h-.382L25.77,8.965l-4.408.371-.377.045-.225.7,3.492,3.255Zm-.478-7.658,3.5-.3.332-.039,1.614-3.463L29.5,9.769l.141.309,3.8.467-2.631,2.283-.264.225.731,3.767L28.26,15l-.287-.152L24.64,16.7l.782-3.373.1-.349Z" transform="translate(-8.484)"/>
      <path id="Path_279" data-name="Path 279" d="M9.6,18.931l-.815,3.5-.112.4.635.467,3.5-1.94L15.9,23.221l.349.219.624-.455-.765-3.93.815-.7L16.19,17.5l-1.085.939-.163.191v.225l.529,2.794-2.283-1.378-.118-.112-.478-.011-.112.112-2.333,1.293.63-2.733v-.332L8.589,16.457l2.676-.236.259-.006.236-.236,1.2-2.575,1.08,2.547.174.332h.315l1.355.169.141-1.119L14.936,15.2,13.508,11.83l-.191-.36-.776.062-.107.332L10.916,15.13l-3.576.309-.444.022-.236.821.309.2Z" transform="translate(-2.311 -2.994)"/>
      <path id="Path_280" data-name="Path 280" d="M43.578,15.221l.1,1.119,1.085-.1.253-.011.236-.236,1.2-2.575,1.029,2.423.011.455h.529l2.682.332-2.086,1.81-.186.2v.242l.534,2.789-2.288-1.372-.118-.118-.495.006-.1.107L43.64,21.574l.635-2.733-.006-.332L42.83,17.166l-.77.821,1.029.961-.81,3.5-.112.377.613.506L46.3,21.383l3.1,1.861.349.214L50.364,23,49.6,19.072l2.7-2.345a.592.592,0,0,0,.2-.618l-.129-.4-3.947-.484-1.439-3.385-.169-.309-.669-.022-.174.276L44.4,15.148Z" transform="translate(-17.808 -3.012)"/>
    </g>
  </g>
</svg>
