<svg xmlns="http://www.w3.org/2000/svg" xmlns:xlink="http://www.w3.org/1999/xlink" width="84" height="84" viewBox="0 0 84 84">
  <defs>
    <filter id="Ellipse_66" x="0" y="0" width="84" height="84" filterUnits="userSpaceOnUse">
      <feOffset dy="3" input="SourceAlpha"/>
      <feGaussianBlur stdDeviation="3" result="blur"/>
      <feFlood flood-opacity="0.161"/>
      <feComposite operator="in" in2="blur"/>
      <feComposite in="SourceGraphic"/>
    </filter>
  </defs>
  <g id="Group_841" data-name="Group 841" transform="translate(-585 -506)">
    <g transform="matrix(1, 0, 0, 1, 585, 506)" filter="url(#Ellipse_66)">
      <circle id="Ellipse_66-2" data-name="Ellipse 66" cx="33" cy="33" r="33" transform="translate(9 6)" fill="#fff"/>
    </g>
    <path id="quality-assurance" d="M72.555,9a1.737,1.737,0,0,0-1.233-.509h-.007a1.734,1.734,0,0,0-1.234.517l-.021.022-1.874,2.145a3,3,0,0,0-1.983-.9l-1.882-.1a1.906,1.906,0,0,1-1.1-.4l-1.509-1.13a2.974,2.974,0,0,0-3.589,0l-1.509,1.13a1.906,1.906,0,0,1-1.1.4l-1.882.1a2.973,2.973,0,0,0-2.75,2.307l-.43,1.836a1.906,1.906,0,0,1-.583,1.01L48.5,16.719a2.974,2.974,0,0,0-.623,3.535l.851,1.682a1.906,1.906,0,0,1,.2,1.149l-.224,1.872A2.973,2.973,0,0,0,50.5,28.065l1.418.607-2.9,6.226a.713.713,0,0,0,.769,1l3.045-.532,1.553,2.673A.711.711,0,0,0,55,38.4h.033a.71.71,0,0,0,.614-.411l2.738-5.88.95-.287a1.9,1.9,0,0,1,1.166,0l.95.287,2.737,5.88a.711.711,0,0,0,.614.411h.033a.711.711,0,0,0,.616-.355l1.553-2.673,3.045.532a.713.713,0,0,0,.769-1l-2.9-6.226,1.418-.607a2.973,2.973,0,0,0,1.795-3.108l-.224-1.872a1.906,1.906,0,0,1,.2-1.148l.851-1.682a2.974,2.974,0,0,0-.623-3.535l-1.375-1.29a1.944,1.944,0,0,1-.429-.572c1.354-1.557,2.5-2.86,3.026-3.388A1.752,1.752,0,0,0,72.555,9ZM54.979,37.107l-1.468-2.526A.49.49,0,0,0,53,34.345l-2.878.5,2.654-5.7a2.019,2.019,0,0,1,.35.41l1.032,1.578a2.97,2.97,0,0,0,2.985,1.318ZM66.84,34.345a.49.49,0,0,0-.508.236l-1.468,2.526L62.7,32.451a3.009,3.009,0,0,0,.491.041,2.972,2.972,0,0,0,2.494-1.358l1.032-1.578a2.019,2.019,0,0,1,.35-.41l2.654,5.7Zm2.456-18.2,1.375,1.29a1.977,1.977,0,0,1,.419,2.379l-.851,1.683a2.906,2.906,0,0,0-.3,1.706l.224,1.872a1.977,1.977,0,0,1-1.208,2.092l-1.733.742a2.907,2.907,0,0,0-1.327,1.114L64.863,30.6a1.977,1.977,0,0,1-2.27.826l-1.8-.545a2.908,2.908,0,0,0-1.733,0l-1.8.545a1.977,1.977,0,0,1-2.27-.826L53.949,29.02a2.906,2.906,0,0,0-1.327-1.114l-1.733-.742a1.977,1.977,0,0,1-1.208-2.092L49.9,23.2a2.906,2.906,0,0,0-.3-1.706l-.851-1.682a1.977,1.977,0,0,1,.419-2.379l1.375-1.29a2.907,2.907,0,0,0,.866-1.5l.43-1.836a1.977,1.977,0,0,1,1.85-1.553l1.882-.1a2.906,2.906,0,0,0,1.628-.593l1.509-1.13a1.977,1.977,0,0,1,2.416,0l1.509,1.13a2.906,2.906,0,0,0,1.628.593l1.882.1a1.986,1.986,0,0,1,1.391.659L65.4,14.357a7.976,7.976,0,0,0-5.483-2.152,8.056,8.056,0,1,0,7.5,5.1c.485-.561.971-1.123,1.442-1.666a3.046,3.046,0,0,0,.435.507Zm-13.79,4.4,3.5,3.5a1.751,1.751,0,0,0,2.476,0c.81-.81,2.994-3.328,5.2-5.886A7.088,7.088,0,1,1,64.76,15.1l-4.547,5.2-2.231-2.232a1.751,1.751,0,0,0-2.476,2.476ZM71.868,10.78c-.836.844-3.076,3.436-5.447,6.179-2.356,2.726-4.792,5.545-5.635,6.389a.772.772,0,0,1-1.091,0l-3.5-3.5a.772.772,0,0,1,1.091-1.091l2.6,2.6a.49.49,0,0,0,.715-.024l7.928-9.075,0,0,2.249-2.575a.761.761,0,0,1,.532-.217h0a.769.769,0,0,1,.546,1.312Z" transform="translate(566.447 521.96)"/>
  </g>
</svg>
