<svg xmlns="http://www.w3.org/2000/svg" width="191" height="129.477" viewBox="0 0 191 129.477"><g transform="translate(-4.6 -3.2)"><path d="M5.462,127.1H21.97a.878.878,0,0,1,.862.862v.862a.878.878,0,0,1-.862.862H8.246a.878.878,0,0,0-.862.862v6.829a.878.878,0,0,0,.862.862H19.716a.878.878,0,0,1,.862.862v.862a.878.878,0,0,1-.862.862H8.246a.878.878,0,0,0-.862.862v9.878a.878.878,0,0,1-.862.862H5.462a.878.878,0,0,1-.862-.862V128.028a.878.878,0,0,1,.862-.862Z" transform="translate(0 -41.759)"/><rect width="2.784" height="25.193" rx="1.3" transform="translate(34.367 85.341)"/><path d="M72.366,136.709c0-6.365,3.779-10.409,10.607-10.409s10.541,4.044,10.541,10.409v14.453a.878.878,0,0,1-.862.862H91.592a.878.878,0,0,1-.862-.862V136.709c0-4.84-2.718-7.889-7.823-7.889s-7.823,2.983-7.823,7.889v14.453a.878.878,0,0,1-.862.862H73.162a.878.878,0,0,1-.862-.862V136.709Z" transform="translate(-22.817 -41.489)"/><path d="M123.662,127.1h16.773a.878.878,0,0,1,.862.862v.862a.878.878,0,0,1-.862.862H126.38a.878.878,0,0,0-.862.862v6.895a.878.878,0,0,0,.862.862h11.8a.878.878,0,0,1,.862.862v.862a.878.878,0,0,1-.862.862h-11.8a.878.878,0,0,0-.862.862v7.293a.878.878,0,0,0,.862.862h14.055a.878.878,0,0,1,.862.862v.862a.878.878,0,0,1-.862.862H123.662a.878.878,0,0,1-.862-.862V128.094a.878.878,0,0,1,.862-.862Z" transform="translate(-39.838 -41.759)"/><path d="M167.733,149.673l14.585-18.7a.87.87,0,0,0-.663-1.392H168.992a.878.878,0,0,1-.862-.862v-.862a.878.878,0,0,1,.862-.862h16.972a.878.878,0,0,1,.862.862v1.26a.55.55,0,0,1-.2.53l-14.585,18.7a.87.87,0,0,0,.663,1.392h13.657a.878.878,0,0,1,.862.862v.862a.878.878,0,0,1-.862.862h-17.9a.878.878,0,0,1-.862-.862V150.2a.55.55,0,0,1,.2-.53Z" transform="translate(-54.937 -41.725)"/><path d="M213.2,143.375v-.265h2.718v.265c0,4.177,2.32,6.829,6.762,6.829s6.762-2.652,6.762-6.829V127.862A.878.878,0,0,1,230.3,127h1.061a.878.878,0,0,1,.862.862v15.513c0,5.7-3.381,9.348-9.547,9.348s-9.414-3.646-9.414-9.348Z" transform="translate(-70.306 -41.725)"/><path d="M259.5,137.106c0-6.63,3.845-10.806,10.873-10.806s10.939,4.177,10.939,10.806v14.055a.878.878,0,0,1-.862.862h-1.061a.878.878,0,0,1-.862-.862V144.4a.878.878,0,0,0-.862-.862H263.08a.878.878,0,0,0-.862.862v6.762a.878.878,0,0,1-.862.862h-.994a.878.878,0,0,1-.862-.862Zm18.165,3.911a.878.878,0,0,0,.862-.862v-3.05c0-5.1-2.785-8.221-8.154-8.221s-8.154,3.182-8.154,8.221v3.05a.878.878,0,0,0,.862.862Z" transform="translate(-85.91 -41.489)"/><path d="M4.6,180.794H6.854v11.27h1.26v-11.27H10.3V179.8H4.6Z" transform="translate(0 -59.52)"/><path d="M35.853,179.8,33.4,192.065h1.26l.53-2.718h3.116l.53,2.718H40.1L37.643,179.8h-1.79Zm-.53,8.552.994-5.37.331-2.055h.066l.331,2.055.994,5.37Z" transform="translate(-9.707 -59.52)"/><path d="M70.642,185.9a3.171,3.171,0,0,0,.663-1.127,5.314,5.314,0,0,0,.2-1.525,5.751,5.751,0,0,0-.331-1.856,2.438,2.438,0,0,0-.928-1.193,3.229,3.229,0,0,0-1.657-.4H66.2v12.265h1.26v-5.3h.994l1.856,5.3h1.326L69.581,186.5a2.607,2.607,0,0,0,1.127-.6Zm-3.249-.133v-4.972h1.061a1.7,1.7,0,0,1,1.26.53,2.1,2.1,0,0,1,.464,1.525v.862a2.035,2.035,0,0,1-.464,1.459,1.411,1.411,0,0,1-1.26.53H67.393Z" transform="translate(-20.761 -59.52)"/><path d="M98.358,181.489a1.683,1.683,0,0,1,1.459-.928,1.289,1.289,0,0,1,.862.2,1.357,1.357,0,0,1,.53.53,3.1,3.1,0,0,1,.265.928c0,.4.066.862.066,1.392h1.26a7.568,7.568,0,0,0-.133-1.79,3.144,3.144,0,0,0-.53-1.26,2.7,2.7,0,0,0-.928-.8,2.968,2.968,0,0,0-1.326-.265,2.69,2.69,0,0,0-1.26.265,2.378,2.378,0,0,0-.928.663,3.055,3.055,0,0,0-.6,1.127,5.169,5.169,0,0,0-.2,1.459v5.768a2.939,2.939,0,0,0,.2,1.326,5.13,5.13,0,0,0,.464,1.061,1.949,1.949,0,0,0,.8.663,2.749,2.749,0,0,0,1.061.2,3.261,3.261,0,0,0,1.326-.332,1.917,1.917,0,0,0,.8-.994h.066l.133,1.26h.928v-6.232H99.751v1.061h1.724v2.851a2.451,2.451,0,0,1-.331.729,1.336,1.336,0,0,1-.6.464,1.835,1.835,0,0,1-.862.2.994.994,0,0,1-.663-.133,1.39,1.39,0,0,1-.53-.4,2.687,2.687,0,0,1-.332-.6,3.328,3.328,0,0,1-.133-.8v-6.63a2.214,2.214,0,0,1,.2-.994Z" transform="translate(-31.108 -59.419)"/><path d="M133.8,180.528a1.86,1.86,0,0,0-.928-.663,3.878,3.878,0,0,0-1.26-.265,3.531,3.531,0,0,0-1.591.4,2.222,2.222,0,0,0-.994,1.193,5.158,5.158,0,0,0-.332,1.856v5.569a3.543,3.543,0,0,0,.2,1.458,3.056,3.056,0,0,0,.6,1.127,1.859,1.859,0,0,0,.928.663,3.877,3.877,0,0,0,1.26.265,3.531,3.531,0,0,0,1.591-.4,2.223,2.223,0,0,0,.994-1.193,5.159,5.159,0,0,0,.331-1.856v-5.569a3.544,3.544,0,0,0-.2-1.459A3.055,3.055,0,0,0,133.8,180.528Zm-.464,8.751a1.686,1.686,0,0,1-.2.995,1.881,1.881,0,0,1-.6.663,1.917,1.917,0,0,1-.928.265,1.4,1.4,0,0,1-.928-.265,1.452,1.452,0,0,1-.6-.663,2.215,2.215,0,0,1-.2-.995v-6.828a2.214,2.214,0,0,1,.2-.994,1.881,1.881,0,0,1,.6-.663,2.266,2.266,0,0,1,1.856,0,1.451,1.451,0,0,1,.6.663,2.213,2.213,0,0,1,.2.994Z" transform="translate(-41.826 -59.453)"/><path d="M167.491,186.628l-.464,4.11h-.066l-.066-.663L165.436,179.8h-1.392l-1.459,10.342-.066.6h-.066l-.464-4.044-.8-6.895H160l1.591,12.265h1.525l1.326-8.221.265-2.122h.066l.265,2.122,1.26,8.221h1.591L169.48,179.8h-1.193Z" transform="translate(-52.375 -59.52)"/><path d="M197.753,179.8,195.3,192.065h1.26l.53-2.718h3.116l.53,2.718H202L199.543,179.8h-1.724Zm-.53,8.552.994-5.37.331-2.055h.066l.331,2.055.995,5.37Z" transform="translate(-64.273 -59.52)"/><path d="M256.37,185.236h-.928l-.265,2.586h-2.784v-.133l3.381-7.889h-1.26L251,187.954v.994h4.11v3.116h1.26v-3.116h1.392v-1.127H256.37Z" transform="translate(-83.045 -59.52)"/><path d="M289.1,181.589a2.524,2.524,0,0,0-.6-1.193,2.78,2.78,0,0,0-.928-.6,3.1,3.1,0,0,0-1.127-.2,2.866,2.866,0,0,0-2.188.862,3.7,3.7,0,0,0-.663,1.26,8.367,8.367,0,0,0-.2,1.989,7.8,7.8,0,0,0,.265,2.254,2.45,2.45,0,0,0,.862,1.326,2.6,2.6,0,0,0,1.525.464,1.98,1.98,0,0,0,1.326-.4,2.45,2.45,0,0,0,.862-1.326h.133v1.459a6.8,6.8,0,0,1-.2,2.188,2.007,2.007,0,0,1-.6,1.127,1.9,1.9,0,0,1-1.127.331,1.324,1.324,0,0,1-.8-.133,1.786,1.786,0,0,1-.53-.464,1.206,1.206,0,0,1-.265-.729,4.474,4.474,0,0,0-.133-.928h-1.193a2.659,2.659,0,0,0,.2,1.26,3.19,3.19,0,0,0,.53,1.061,2.155,2.155,0,0,0,.862.663,3.534,3.534,0,0,0,1.26.265,3.261,3.261,0,0,0,1.392-.265,2.314,2.314,0,0,0,.994-.8,4.578,4.578,0,0,0,.6-1.525,12.352,12.352,0,0,0,.2-2.387v-3.58a7.779,7.779,0,0,0-.2-1.923Zm-.995,3.315a1.584,1.584,0,0,1-.331.928,3.189,3.189,0,0,1-.6.729,1.333,1.333,0,0,1-.862.265,1.2,1.2,0,0,1-.729-.133,1.031,1.031,0,0,1-.53-.4,1.866,1.866,0,0,1-.332-.729,4.766,4.766,0,0,1-.132-1.127v-1.525a2.66,2.66,0,0,1,.2-1.26,2.387,2.387,0,0,1,.53-.8,1.6,1.6,0,0,1,.995-.265,1.436,1.436,0,0,1,.8.133,1.6,1.6,0,0,1,.53.4,1.865,1.865,0,0,1,.331.729,4.009,4.009,0,0,1,.133.994V184.9Z" transform="translate(-93.965 -59.453)"/><path d="M137.614,3.2A21.447,21.447,0,0,0,116.2,24.614V68.7h42.827V24.614A21.447,21.447,0,0,0,137.614,3.2Zm-13.79,7.624A19.491,19.491,0,0,1,157.1,24.614V36.481h-6.431V28.127h-27.38v7.491h-5.1V24.614a19.613,19.613,0,0,1,5.7-13.79Zm24.861,25.657h0V66.712H118.123V50.8h6.961v-.994c0-6.63,0-13.193.066-19.823h23.469v6.431Zm-25.524,12.4h-5.039V37.542h5.1V48.878ZM150.608,38.4h6.431V66.778h-6.431Z" transform="translate(-37.613 0)"/></g></svg>