<svg xmlns="http://www.w3.org/2000/svg" width="234" height="158.626" viewBox="0 0 234 158.626"><defs><style>.a{fill:#232323;}</style></defs><g transform="translate(-4.6 -3.2)"><path class="a" d="M5.656,127.1H25.88a1.075,1.075,0,0,1,1.056,1.056v1.056a1.075,1.075,0,0,1-1.056,1.056H9.067a1.075,1.075,0,0,0-1.056,1.056v8.366a1.075,1.075,0,0,0,1.056,1.056H23.119a1.075,1.075,0,0,1,1.056,1.056v1.056a1.075,1.075,0,0,1-1.056,1.056H9.067a1.075,1.075,0,0,0-1.056,1.056v12.1a1.075,1.075,0,0,1-1.056,1.056h-1.3A1.075,1.075,0,0,1,4.6,157.071V128.237a1.075,1.075,0,0,1,1.056-1.056Z" transform="translate(0 -23.266)"/><rect class="a" width="3.411" height="30.864" rx="1.3" transform="translate(41.069 103.834)"/><path class="a" d="M72.381,139.052c0-7.8,4.63-12.752,13-12.752s12.914,4.955,12.914,12.752v17.706a1.075,1.075,0,0,1-1.056,1.056h-1.3a1.075,1.075,0,0,1-1.056-1.056V139.052c0-5.929-3.33-9.665-9.584-9.665s-9.584,3.655-9.584,9.665v17.706a1.075,1.075,0,0,1-1.056,1.056h-1.3a1.075,1.075,0,0,1-1.056-1.056V139.052Z" transform="translate(-12.713 -23.116)"/><path class="a" d="M123.856,127.1H144.4a1.075,1.075,0,0,1,1.056,1.056v1.056a1.075,1.075,0,0,1-1.056,1.056H127.186a1.075,1.075,0,0,0-1.056,1.056v8.447a1.075,1.075,0,0,0,1.056,1.056h14.457a1.075,1.075,0,0,1,1.056,1.056v1.056a1.075,1.075,0,0,1-1.056,1.056H127.186a1.075,1.075,0,0,0-1.056,1.056v8.934a1.075,1.075,0,0,0,1.056,1.056H144.4a1.075,1.075,0,0,1,1.056,1.056v1.056a1.075,1.075,0,0,1-1.056,1.056H123.856a1.075,1.075,0,0,1-1.056-1.056V128.318a1.075,1.075,0,0,1,1.056-1.056Z" transform="translate(-22.196 -23.266)"/><path class="a" d="M167.762,154.778l17.869-22.9a1.066,1.066,0,0,0-.812-1.706H169.306a1.075,1.075,0,0,1-1.056-1.056v-1.056A1.075,1.075,0,0,1,169.306,127H190.1a1.075,1.075,0,0,1,1.056,1.056V129.6a.673.673,0,0,1-.244.65l-17.869,22.9a1.066,1.066,0,0,0,.812,1.706h16.732a1.075,1.075,0,0,1,1.056,1.056v1.056a1.075,1.075,0,0,1-1.056,1.056h-21.93a1.075,1.075,0,0,1-1.056-1.056v-1.543a.673.673,0,0,1,.244-.65Z" transform="translate(-30.608 -23.247)"/><path class="a" d="M213.2,147.062v-.325h3.33v.325c0,5.117,2.843,8.366,8.285,8.366s8.285-3.249,8.285-8.366V128.056A1.075,1.075,0,0,1,234.155,127h1.3a1.075,1.075,0,0,1,1.056,1.056v19.006c0,6.985-4.142,11.452-11.7,11.452s-11.533-4.467-11.533-11.452Z" transform="translate(-39.171 -23.247)"/><path class="a" d="M259.5,139.539c0-8.122,4.711-13.239,13.32-13.239s13.4,5.117,13.4,13.239v17.219a1.075,1.075,0,0,1-1.056,1.056h-1.3a1.075,1.075,0,0,1-1.056-1.056v-8.285a1.075,1.075,0,0,0-1.056-1.056H263.886a1.075,1.075,0,0,0-1.056,1.056v8.285a1.075,1.075,0,0,1-1.056,1.056h-1.218a1.075,1.075,0,0,1-1.056-1.056Zm22.255,4.792a1.075,1.075,0,0,0,1.056-1.056v-3.736c0-6.254-3.411-10.072-9.99-10.072s-9.99,3.9-9.99,10.072v3.736a1.075,1.075,0,0,0,1.056,1.056Z" transform="translate(-47.866 -23.116)"/><path class="a" d="M4.6,181.018H7.362v13.808H8.9V181.018h2.68V179.8H4.6Z" transform="translate(0 -33.162)"/><path class="a" d="M36.405,179.8,33.4,194.826h1.543l.65-3.33H39.41l.65,3.33H41.6L38.6,179.8H36.405Zm-.65,10.478,1.218-6.579.406-2.518h.081l.406,2.518,1.218,6.579Z" transform="translate(-5.408 -33.162)"/><path class="a" d="M71.642,187.272a3.886,3.886,0,0,0,.812-1.381,6.511,6.511,0,0,0,.244-1.868,7.046,7.046,0,0,0-.406-2.274,2.987,2.987,0,0,0-1.137-1.462,3.956,3.956,0,0,0-2.031-.487H66.2v15.026h1.543v-6.5h1.218l2.274,6.5H72.86L70.342,188a3.194,3.194,0,0,0,1.381-.731Zm-3.98-.162v-6.092h1.3a2.08,2.08,0,0,1,1.543.65,2.578,2.578,0,0,1,.569,1.868v1.056a2.493,2.493,0,0,1-.569,1.787,1.729,1.729,0,0,1-1.543.65h-1.3Z" transform="translate(-11.567 -33.162)"/><path class="a" d="M98.687,181.937a2.061,2.061,0,0,1,1.787-1.137,1.579,1.579,0,0,1,1.056.244,1.662,1.662,0,0,1,.65.65,3.8,3.8,0,0,1,.325,1.137c0,.487.081,1.056.081,1.706h1.543a9.271,9.271,0,0,0-.162-2.193,3.852,3.852,0,0,0-.65-1.543,3.307,3.307,0,0,0-1.137-.975,3.636,3.636,0,0,0-1.624-.325,3.3,3.3,0,0,0-1.543.325,2.913,2.913,0,0,0-1.137.812,3.743,3.743,0,0,0-.731,1.381A6.333,6.333,0,0,0,96.9,183.8v7.066a3.6,3.6,0,0,0,.244,1.624,6.284,6.284,0,0,0,.569,1.3,2.388,2.388,0,0,0,.975.812,3.368,3.368,0,0,0,1.3.244,4,4,0,0,0,1.624-.406,2.348,2.348,0,0,0,.975-1.218h.081l.162,1.543h1.137v-7.635h-3.574v1.3H102.5v3.493a3,3,0,0,1-.406.893,1.637,1.637,0,0,1-.731.569,2.248,2.248,0,0,1-1.056.244,1.218,1.218,0,0,1-.812-.162,1.7,1.7,0,0,1-.65-.487,3.293,3.293,0,0,1-.406-.731,4.078,4.078,0,0,1-.162-.975v-8.122a2.713,2.713,0,0,1,.244-1.218Z" transform="translate(-17.332 -33.106)"/><path class="a" d="M134.954,180.737a2.279,2.279,0,0,0-1.137-.812,4.751,4.751,0,0,0-1.543-.325,4.326,4.326,0,0,0-1.949.487,2.723,2.723,0,0,0-1.218,1.462,6.319,6.319,0,0,0-.406,2.274v6.823a4.341,4.341,0,0,0,.244,1.787,3.743,3.743,0,0,0,.731,1.381,2.278,2.278,0,0,0,1.137.812,4.75,4.75,0,0,0,1.543.325,4.325,4.325,0,0,0,1.949-.487A2.723,2.723,0,0,0,135.523,193a6.319,6.319,0,0,0,.406-2.274V183.9a4.342,4.342,0,0,0-.244-1.787A3.744,3.744,0,0,0,134.954,180.737Zm-.569,10.721a2.066,2.066,0,0,1-.244,1.218,2.3,2.3,0,0,1-.731.812,2.348,2.348,0,0,1-1.137.325,1.719,1.719,0,0,1-1.137-.325,1.779,1.779,0,0,1-.731-.812,2.713,2.713,0,0,1-.244-1.218v-8.366a2.713,2.713,0,0,1,.244-1.218,2.3,2.3,0,0,1,.731-.812,2.775,2.775,0,0,1,2.274,0,1.778,1.778,0,0,1,.731.812,2.712,2.712,0,0,1,.244,1.218Z" transform="translate(-23.304 -33.125)"/><path class="a" d="M169.178,188.166l-.569,5.036h-.081l-.081-.812L166.66,179.8h-1.706l-1.787,12.671-.081.731h-.081l-.569-4.955-.975-8.447H160l1.949,15.026h1.868l1.624-10.072.325-2.6h.081l.325,2.6,1.543,10.072h1.949l1.949-15.026h-1.462Z" transform="translate(-29.181 -33.162)"/><path class="a" d="M198.305,179.8,195.3,194.826h1.543l.65-3.33h3.818l.65,3.33H203.5L200.5,179.8h-2.112Zm-.65,10.478,1.218-6.579.406-2.518h.081l.406,2.518,1.218,6.579Z" transform="translate(-35.81 -33.162)"/><path class="a" d="M257.579,186.46h-1.137l-.325,3.168h-3.411v-.162l4.142-9.665H255.3l-4.3,9.99v1.218h5.036v3.817h1.543v-3.817h1.706v-1.381h-1.706Z" transform="translate(-46.269 -33.162)"/><path class="a" d="M290.385,182.037a3.091,3.091,0,0,0-.731-1.462,3.406,3.406,0,0,0-1.137-.731,3.794,3.794,0,0,0-1.381-.244,3.511,3.511,0,0,0-2.68,1.056,4.535,4.535,0,0,0-.812,1.543,10.253,10.253,0,0,0-.244,2.437,9.549,9.549,0,0,0,.325,2.762,3,3,0,0,0,1.056,1.624,3.191,3.191,0,0,0,1.868.569,2.425,2.425,0,0,0,1.624-.487,3,3,0,0,0,1.056-1.624h.162v1.787a8.334,8.334,0,0,1-.244,2.68,2.458,2.458,0,0,1-.731,1.381,2.322,2.322,0,0,1-1.381.406,1.622,1.622,0,0,1-.975-.162,2.188,2.188,0,0,1-.65-.569,1.478,1.478,0,0,1-.325-.893,5.486,5.486,0,0,0-.163-1.137h-1.462a3.258,3.258,0,0,0,.244,1.543,3.909,3.909,0,0,0,.65,1.3,2.639,2.639,0,0,0,1.056.812,4.329,4.329,0,0,0,1.543.325,4,4,0,0,0,1.706-.325,2.836,2.836,0,0,0,1.218-.975,5.609,5.609,0,0,0,.731-1.868,15.138,15.138,0,0,0,.244-2.924v-4.386a9.534,9.534,0,0,0-.244-2.355Zm-1.218,4.061a1.94,1.94,0,0,1-.406,1.137,3.906,3.906,0,0,1-.731.893,1.633,1.633,0,0,1-1.056.325,1.475,1.475,0,0,1-.893-.162,1.264,1.264,0,0,1-.65-.487,2.285,2.285,0,0,1-.406-.893,5.834,5.834,0,0,1-.162-1.381v-1.868a3.259,3.259,0,0,1,.244-1.543,2.923,2.923,0,0,1,.65-.975,1.958,1.958,0,0,1,1.218-.325,1.759,1.759,0,0,1,.975.162,1.958,1.958,0,0,1,.65.487,2.283,2.283,0,0,1,.406.893,4.911,4.911,0,0,1,.162,1.218V186.1Z" transform="translate(-52.353 -33.125)"/><path class="a" d="M142.435,3.2A26.275,26.275,0,0,0,116.2,29.435V83.447h52.469V29.435A26.275,26.275,0,0,0,142.435,3.2Zm-16.894,9.341a23.879,23.879,0,0,1,40.773,16.894V43.973h-7.879V33.739H124.891v9.178h-6.254V29.435a24.029,24.029,0,0,1,6.985-16.894ZM156,43.973h0V81.011H118.555V61.517h8.528V60.3c0-8.122,0-16.163.081-24.285h28.753v7.879Zm-31.27,15.188h-6.173V45.273h6.254V59.162Zm33.626-12.833h7.879V81.092h-7.879Z" transform="translate(-20.956 0)"/></g></svg>