<svg xmlns="http://www.w3.org/2000/svg" width="118.218" height="63.659" viewBox="0 0 118.218 63.659"><defs><style>.a{fill:#978c7d;}</style></defs><path class="a" d="M334.536,300.755a38.2,38.2,0,0,1-12.019,10.284c-7.517,4-16,4.9-23.1,4.681,5.355,2.88,12.186,5.423,19.61,5.423,13.312,0,24.63-8.126,28.878-11.619h0a.373.373,0,0,0,0-.589,57.565,57.565,0,0,0-13.373-8.179Z" transform="translate(-229.835 -257.483)"/><path class="a" d="M36.535,311.039a38.2,38.2,0,0,1-12.019-10.284,57.571,57.571,0,0,0-13.372,8.179.372.372,0,0,0,0,.589c4.248,3.494,15.566,11.619,28.878,11.619,7.424,0,14.255-2.543,19.61-5.423-7.093.223-15.579-.684-23.1-4.681Z" transform="translate(-10.999 -257.483)"/><path class="a" d="M313.944,160.136q.862-.527,1.743-1a40.144,40.144,0,0,1,12.9-4.107,47.47,47.47,0,0,0-.794-16.549.39.39,0,0,0-.205-.264.446.446,0,0,0-.347-.031,58.015,58.015,0,0,0-15.8,7.529,33.413,33.413,0,0,1,2.573,12.491Q314.008,159.167,313.944,160.136Z" transform="translate(-238.952 -131.03)"/><path class="a" d="M141.128,159.143q.879.468,1.741.994-.064-.967-.064-1.925a33.412,33.412,0,0,1,2.573-12.491,58.019,58.019,0,0,0-15.8-7.529.457.457,0,0,0-.35.031.394.394,0,0,0-.2.263,47.47,47.47,0,0,0-.794,16.549A40.183,40.183,0,0,1,141.128,159.143Z" transform="translate(-99.643 -131.033)"/><path class="a" d="M299.611,248.786c11.528-6.133,16.92-18.383,18.7-23.366a.364.364,0,0,0-.036-.321.419.419,0,0,0-.285-.189c-5.577-1.067-19.795-2.889-31.316,3.238a31.831,31.831,0,0,0-3.733,2.338c-1.872,9.866-8.16,18.038-11.729,22.021,6.7.944,18.536,1.522,28.4-3.721Z" transform="translate(-208.435 -197.633)"/><path class="a" d="M77.134,228.146c-6.367-3.385-13.557-4.344-19.658-4.344a63.4,63.4,0,0,0-11.661,1.106.418.418,0,0,0-.284.189.364.364,0,0,0-.036.321c1.783,4.982,7.175,17.233,18.7,23.366,9.86,5.243,21.692,4.666,28.4,3.721-3.572-3.986-9.857-12.157-11.73-22.024a31.849,31.849,0,0,0-3.731-2.336Z" transform="translate(-37.156 -197.633)"/><path class="a" d="M215.633,106.18a.43.43,0,0,0-.624,0c-3.8,3.979-12.623,14.578-12.623,27.046s8.827,23.067,12.623,27.046a.43.43,0,0,0,.624,0c3.8-3.979,12.623-14.578,12.623-27.046S219.428,110.158,215.633,106.18Z" transform="translate(-156.212 -106.046)"/></svg>