<svg xmlns="http://www.w3.org/2000/svg" xmlns:xlink="http://www.w3.org/1999/xlink" width="54" height="54" viewBox="0 0 54 54">
  <defs>
    <filter id="Ellipse_51" x="0" y="0" width="54" height="54" filterUnits="userSpaceOnUse">
      <feOffset dy="3" input="SourceAlpha"/>
      <feGaussianBlur stdDeviation="3" result="blur"/>
      <feFlood flood-opacity="0.161"/>
      <feComposite operator="in" in2="blur"/>
      <feComposite in="SourceGraphic"/>
    </filter>
  </defs>
  <g id="Group_377" data-name="Group 377" transform="translate(-518 -5008.673)">
    <g transform="matrix(1, 0, 0, 1, 518, 5008.67)" filter="url(#Ellipse_51)">
      <circle id="Ellipse_51-2" data-name="Ellipse 51" cx="18" cy="18" r="18" transform="translate(9 6)" fill="#fff"/>
    </g>
    <path id="Icon_material-local-phone" data-name="Icon material-local-phone" d="M7.187,10.281a11.243,11.243,0,0,0,4.891,4.891L13.71,13.54a.738.738,0,0,1,.757-.178,8.466,8.466,0,0,0,2.65.423.744.744,0,0,1,.742.742v2.59a.744.744,0,0,1-.742.742A12.616,12.616,0,0,1,4.5,5.242.744.744,0,0,1,5.242,4.5h2.6a.744.744,0,0,1,.742.742A8.431,8.431,0,0,0,9,7.892a.745.745,0,0,1-.186.757Z" transform="translate(533.82 5021.493)" fill="#000"/>
  </g>
</svg>
