<svg xmlns="http://www.w3.org/2000/svg" xmlns:xlink="http://www.w3.org/1999/xlink" width="84" height="84" viewBox="0 0 84 84">
  <defs>
    <filter id="Ellipse_65" x="0" y="0" width="84" height="84" filterUnits="userSpaceOnUse">
      <feOffset dy="3" input="SourceAlpha"/>
      <feGaussianBlur stdDeviation="3" result="blur"/>
      <feFlood flood-opacity="0.161"/>
      <feComposite operator="in" in2="blur"/>
      <feComposite in="SourceGraphic"/>
    </filter>
  </defs>
  <g id="Group_843" data-name="Group 843" transform="translate(-264 -592)">
    <g transform="matrix(1, 0, 0, 1, 264, 592)" filter="url(#Ellipse_65)">
      <circle id="Ellipse_65-2" data-name="Ellipse 65" cx="33" cy="33" r="33" transform="translate(9 6)" fill="#fff"/>
    </g>
    <g id="communities" transform="translate(290.031 615.034)">
      <path id="Path_281" data-name="Path 281" d="M29.635,27.661a2.487,2.487,0,1,0-2.307,0A3.485,3.485,0,0,0,25,30.943a.5.5,0,0,0,.5.5h5.969a.5.5,0,0,0,.5-.5A3.485,3.485,0,0,0,29.635,27.661ZM28.482,23.98a1.492,1.492,0,1,1-1.492,1.492,1.492,1.492,0,0,1,1.492-1.492Zm-2.437,6.466a2.487,2.487,0,0,1,4.875,0Z" transform="translate(-12.078 -11.059)"/>
      <path id="Path_282" data-name="Path 282" d="M26.849,21.874A4.951,4.951,0,0,0,23.7,23L21.309,20.6a6.433,6.433,0,0,0,1.548-3.943l5.079-.188a1.976,1.976,0,1,0-.044-.995l-5.067.188A6.466,6.466,0,0,0,19.944,11l.951-1.728a2.988,2.988,0,1,0-.871-.479l-.951,1.729a6.421,6.421,0,0,0-6.87.978L9.808,9.1a4.982,4.982,0,1,0-.7.7L11.5,12.2a6.4,6.4,0,0,0-1.446,5.4L5.684,18.772a2.468,2.468,0,1,0,.274,1.112c0-.05-.012-.1-.015-.149l4.372-1.177A6.492,6.492,0,0,0,13.08,21.94l-1.053,2.1a3.489,3.489,0,1,0,.889.448l1.051-2.1a6.429,6.429,0,0,0,6.639-1.081L23,23.7a4.971,4.971,0,1,0,3.849-1.828Zm2.984-6.964a.995.995,0,1,1-.995.995A.995.995,0,0,1,29.834,14.91ZM21.875,4.465a1.99,1.99,0,1,1-1.99,1.99A1.99,1.99,0,0,1,21.875,4.465ZM3.471,21.376a1.492,1.492,0,1,1,1.492-1.492A1.492,1.492,0,0,1,3.471,21.376Zm9.948,5.969a2.487,2.487,0,1,1-2.487-2.487A2.487,2.487,0,0,1,13.419,27.345ZM1.979,5.957A3.979,3.979,0,1,1,8.906,8.62a.486.486,0,0,0,.036-.176,2.964,2.964,0,0,0-.873-2.11,3,3,0,0,0-.669-.5,1.99,1.99,0,1,0-2.879,0A2.984,2.984,0,0,0,2.974,8.444a.5.5,0,0,0,.035.175,3.96,3.96,0,0,1-1.03-2.662Zm3.979-.5a.995.995,0,1,1,.995-.995A.995.995,0,0,1,5.958,5.459Zm0,.995A1.99,1.99,0,0,1,7.885,7.946H4.031A1.993,1.993,0,0,1,5.958,6.454ZM3.3,8.906a.491.491,0,0,0,.174.035H8.445a.486.486,0,0,0,.177-.036,3.954,3.954,0,0,1-5.322,0Zm7.635,7.5A5.471,5.471,0,1,1,16.4,21.874,5.471,5.471,0,0,1,10.932,16.4ZM24.188,29.8a.491.491,0,0,0,.174.035h4.974a.486.486,0,0,0,.177-.036,3.954,3.954,0,0,1-5.322,0Zm2.661-3.447a.995.995,0,1,1,.995-.995A.995.995,0,0,1,26.849,26.35Zm0,.995a1.99,1.99,0,0,1,1.926,1.492H24.922a1.993,1.993,0,0,1,1.927-1.492ZM29.8,29.511a.486.486,0,0,0,.037-.176,2.964,2.964,0,0,0-.873-2.11,3,3,0,0,0-.669-.5,1.99,1.99,0,1,0-2.879,0,2.984,2.984,0,0,0-1.547,2.614.5.5,0,0,0,.035.175,3.979,3.979,0,1,1,5.9,0Z" transform="translate(0)"/>
    </g>
  </g>
</svg>
