<svg xmlns="http://www.w3.org/2000/svg" xmlns:xlink="http://www.w3.org/1999/xlink" width="84" height="84" viewBox="0 0 84 84">
  <defs>
    <filter id="Ellipse_64" x="0" y="0" width="84" height="84" filterUnits="userSpaceOnUse">
      <feOffset dy="3" input="SourceAlpha"/>
      <feGaussianBlur stdDeviation="3" result="blur"/>
      <feFlood flood-opacity="0.161"/>
      <feComposite operator="in" in2="blur"/>
      <feComposite in="SourceGraphic"/>
    </filter>
  </defs>
  <g id="Group_840" data-name="Group 840" transform="translate(-585 -592)">
    <g transform="matrix(1, 0, 0, 1, 585, 592)" filter="url(#Ellipse_64)">
      <circle id="Ellipse_64-2" data-name="Ellipse 64" cx="33" cy="33" r="33" transform="translate(9 6)" fill="#fff"/>
    </g>
    <g id="_x34_2_Trust" transform="translate(604.293 583.212)">
      <g id="Group_671" data-name="Group 671" transform="translate(4.707 31.788)">
        <g id="Group_670" data-name="Group 670" transform="translate(0 0)">
          <path id="Path_283" data-name="Path 283" d="M40.584,205.369a.563.563,0,0,0-.781-.147c-1.359.928-2.719,1.916-4.044,2.937-.191.147-.535.261-.652.1l-4.579-6.983a.8.8,0,0,1,.3-.3c.981-.6,1.957-1.218,2.9-1.846a.562.562,0,1,0-.621-.936c-.934.619-1.9,1.233-2.865,1.821a1.918,1.918,0,0,0-.732.785H15.88a1.914,1.914,0,0,0-.731-.784c-.968-.59-1.932-1.2-2.866-1.822a.562.562,0,1,0-.621.936c.946.628,1.922,1.249,2.9,1.847a1.285,1.285,0,0,1,.282.275l-4.427,6.808c-.056.023-.181.573-.79.1-1.324-1.02-2.685-2.008-4.044-2.936a.562.562,0,1,0-.634.928c1.341.916,2.684,1.892,3.991,2.9a1.555,1.555,0,0,0,2.267-.159l.238-.346a3.033,3.033,0,0,1,.906,1.261,1.925,1.925,0,0,0-.373.371,1.95,1.95,0,0,0,.408,2.729l.07.052a1.857,1.857,0,0,0,1.338.361,1.981,1.981,0,0,0,.792,1.452h0a1.925,1.925,0,0,0,1.515.353,1.985,1.985,0,0,0,.787,1.351,1.934,1.934,0,0,0,1.6.341,1.794,1.794,0,0,0,3.077.906,2.058,2.058,0,0,0,3.037-1.538l.259.185a2.063,2.063,0,0,0,3.212-1.439,2.063,2.063,0,0,0,3.1-1.519l.019.013a2.061,2.061,0,0,0,2.346-3.39l-.1-.074,1.146-.694a1.674,1.674,0,0,0,1.863-.216c1.307-1.007,2.65-1.982,3.992-2.9A.562.562,0,0,0,40.584,205.369Zm-26.2,6.33-.231.319a.825.825,0,0,1-1.023.034h0L13.057,212a.826.826,0,1,1,.984-1.328l.069.051A.825.825,0,0,1,14.381,211.7Zm2.093,1.985a.868.868,0,0,1-1.423-.993c.09-.1.5-.685.653-.891a.87.87,0,0,1,1.4,1.034Zm2.3,1.7a.87.87,0,0,1-1.216.181h0a.869.869,0,0,1-.182-1.216l1.187-1.6a.87.87,0,0,1,1.4,1.035Zm2.2,1.277-.163.22a.689.689,0,0,1-.963.144h0a.69.69,0,0,1-.144-.964l.163-.22a.689.689,0,1,1,1.107.82Zm12.147-4.412a.938.938,0,0,1-1.306.24L25.982,208.5a.562.562,0,1,0-.636.927l4.3,2.956a.937.937,0,0,1-1.061,1.545l-4.3-2.956a.561.561,0,0,0-.706.056l-.045.043a.563.563,0,0,0,.077.876l2.944,1.95a.937.937,0,0,1-1.052,1.55l-2.771-1.976a.562.562,0,0,0-.666.906l1.019.771a.939.939,0,0,1-.928,1.625,1.8,1.8,0,0,0-1.32-2.279l.029-.039a1.993,1.993,0,0,0-2.628-2.895,1.983,1.983,0,0,0-2.845-.959,1.933,1.933,0,0,0-.616-.78l-.069-.051a1.932,1.932,0,0,0-1.3-.368,4.25,4.25,0,0,0-1.3-1.782l3.714-5.434a1.275,1.275,0,0,0,.136-.264H18.5a3.88,3.88,0,0,0-1.949,3.361v.7a1.34,1.34,0,0,0,1.742,1.278,2.607,2.607,0,0,0,1.511-1.333,2.087,2.087,0,0,1,3.471-.287A3.179,3.179,0,0,0,26,206.9a2.927,2.927,0,0,1,1.647.505l4.418,2.991.008.006.808.547,0,0a.938.938,0,0,1,.242,1.3Zm-.721-2.984-4.128-2.8a4.048,4.048,0,0,0-2.277-.7,2.107,2.107,0,0,1-1.819-.8,3.211,3.211,0,0,0-5.373.422,1.493,1.493,0,0,1-.852.786.216.216,0,0,1-.284-.205v-.7a2.757,2.757,0,0,1,1.412-2.406l1.712-.955h8.642a1.28,1.28,0,0,0,.136.264l4.267,6.216Z" transform="translate(-4.707 -186.19)"/>
          <path id="Path_284" data-name="Path 284" d="M177.95,43.817a6.014,6.014,0,1,0-6.015-6.015A6.024,6.024,0,0,0,177.95,43.817Zm0-10.9a4.89,4.89,0,1,1-4.89,4.89,4.9,4.9,0,0,1,4.89-4.89Z" transform="translate(-159.965 -31.788)"/>
          <path id="Path_285" data-name="Path 285" d="M223.817,93.019a.562.562,0,0,0,.795,0l2.657-2.657a.562.562,0,1,0-.795-.795l-2.259,2.259-.595-.595a.562.562,0,0,0-.795.795Z" transform="translate(-207.059 -85.279)"/>
        </g>
      </g>
    </g>
  </g>
</svg>
