<svg xmlns="http://www.w3.org/2000/svg" width="21.234" height="21.235" viewBox="0 0 21.234 21.235">
  <path id="apps_FILL0_wght400_GRAD0_opsz24" d="M178.58-778.765a2.556,2.556,0,0,0,1.875-.78,2.556,2.556,0,0,0,.78-1.875,2.556,2.556,0,0,0-.78-1.875,2.556,2.556,0,0,0-1.875-.78,2.556,2.556,0,0,0-1.875.78,2.556,2.556,0,0,0-.78,1.875,2.556,2.556,0,0,0,.78,1.875A2.556,2.556,0,0,0,178.58-778.765Zm-7.963,0a2.556,2.556,0,0,0,1.875-.78,2.556,2.556,0,0,0,.78-1.875,2.556,2.556,0,0,0-.78-1.875,2.556,2.556,0,0,0-1.875-.78,2.556,2.556,0,0,0-1.875.78,2.556,2.556,0,0,0-.78,1.875,2.556,2.556,0,0,0,.78,1.875A2.556,2.556,0,0,0,170.617-778.765Zm-7.963,0a2.556,2.556,0,0,0,1.875-.78,2.556,2.556,0,0,0,.78-1.875,2.556,2.556,0,0,0-.78-1.875,2.556,2.556,0,0,0-1.875-.78,2.556,2.556,0,0,0-1.875.78,2.556,2.556,0,0,0-.78,1.875,2.556,2.556,0,0,0,.78,1.875A2.556,2.556,0,0,0,162.654-778.765Zm15.926-7.963a2.556,2.556,0,0,0,1.875-.78,2.556,2.556,0,0,0,.78-1.875,2.556,2.556,0,0,0-.78-1.875,2.556,2.556,0,0,0-1.875-.78,2.556,2.556,0,0,0-1.875.78,2.556,2.556,0,0,0-.78,1.875,2.556,2.556,0,0,0,.78,1.875A2.556,2.556,0,0,0,178.58-786.728Zm-7.963,0a2.556,2.556,0,0,0,1.875-.78,2.556,2.556,0,0,0,.78-1.875,2.556,2.556,0,0,0-.78-1.875,2.556,2.556,0,0,0-1.875-.78,2.556,2.556,0,0,0-1.875.78,2.556,2.556,0,0,0-.78,1.875,2.556,2.556,0,0,0,.78,1.875A2.556,2.556,0,0,0,170.617-786.728Zm-7.963,0a2.556,2.556,0,0,0,1.875-.78,2.556,2.556,0,0,0,.78-1.875,2.556,2.556,0,0,0-.78-1.875,2.556,2.556,0,0,0-1.875-.78,2.556,2.556,0,0,0-1.875.78,2.556,2.556,0,0,0-.78,1.875,2.556,2.556,0,0,0,.78,1.875A2.556,2.556,0,0,0,162.654-786.728Zm15.926-7.963a2.556,2.556,0,0,0,1.875-.78,2.556,2.556,0,0,0,.78-1.875,2.556,2.556,0,0,0-.78-1.875,2.556,2.556,0,0,0-1.875-.78,2.556,2.556,0,0,0-1.875.78,2.556,2.556,0,0,0-.78,1.875,2.556,2.556,0,0,0,.78,1.875A2.556,2.556,0,0,0,178.58-794.691Zm-7.963,0a2.556,2.556,0,0,0,1.875-.78,2.556,2.556,0,0,0,.78-1.875,2.556,2.556,0,0,0-.78-1.875,2.556,2.556,0,0,0-1.875-.78,2.556,2.556,0,0,0-1.875.78,2.556,2.556,0,0,0-.78,1.875,2.556,2.556,0,0,0,.78,1.875A2.556,2.556,0,0,0,170.617-794.691Zm-7.963,0a2.556,2.556,0,0,0,1.875-.78,2.556,2.556,0,0,0,.78-1.875,2.556,2.556,0,0,0-.78-1.875,2.556,2.556,0,0,0-1.875-.78,2.556,2.556,0,0,0-1.875.78,2.556,2.556,0,0,0-.78,1.875,2.556,2.556,0,0,0,.78,1.875A2.556,2.556,0,0,0,162.654-794.691Z" transform="translate(-160 800)"/>
</svg>
